<svg width="24" height="24" viewBox="0 0 24 24" fill="none" xmlns="http://www.w3.org/2000/svg">
  <circle cx="12" cy="12" r="10" fill="#1b2838"/>
  <path d="M12 4c-4.4 0-8 3.6-8 8 0 1.3.3 2.5.8 3.6l4.4-1.8c.2-1.1 1.2-2 2.4-2 .2 0 .4 0 .6.1l2.1-3c0-.1 0-.2 0-.3 0-1.7 1.4-3.1 3.1-3.1s3.1 1.4 3.1 3.1-1.4 3.1-3.1 3.1h-.1l-2.9 2.1c0 .2.1.4.1.6 0 1.3-1.1 2.4-2.4 2.4-1.2 0-2.2-.9-2.4-2l-4.2 1.7c1.2 2.2 3.6 3.7 6.4 3.7 4.4 0 8-3.6 8-8s-3.6-8-8-8z" fill="#66c0f4"/>
  <circle cx="16.5" cy="7.5" r="1.5" fill="#66c0f4"/>
  <circle cx="11.5" cy="16.5" r="1.5" fill="#66c0f4"/>
</svg> 